<svg version="1.1" viewBox="0.0 0.0 800.0 600.0" fill="none" stroke="none" stroke-linecap="square" stroke-miterlimit="10" xmlns:xlink="http://www.w3.org/1999/xlink" xmlns="http://www.w3.org/2000/svg"><clipPath id="p.0"><path d="m0 0l800.0 0l0 600.0l-800.0 0l0 -600.0z" clip-rule="nonzero"/></clipPath><g clip-path="url(#p.0)"><path fill="#000000" fill-opacity="0.0" d="m0 0l800.0 0l0 600.0l-800.0 0z" fill-rule="evenodd"/><path fill="#000000" fill-opacity="0.0" d="m72.00336 536.55597l68.220474 0l0 31.779541l-68.220474 0z" fill-rule="evenodd"/><path fill="#000000" d="m114.75508 552.8689q0 -4.0625 0.828125 -6.53125q0.84375 -2.484375 2.484375 -3.828125q1.65625 -1.34375 4.15625 -1.34375q1.84375 0 3.234375 0.75q1.390625 0.734375 2.296875 2.140625q0.90625 1.390625 1.421875 3.40625q0.515625 2.0 0.515625 5.40625q0 4.03125 -0.828125 6.515625q-0.828125 2.46875 -2.484375 3.828125q-1.640625 1.34375 -4.15625 1.34375q-3.3125 0 -5.203125 -2.375q-2.265625 -2.859375 -2.265625 -9.3125zm2.890625 0q0 5.640625 1.3125 7.515625q1.328125 1.859375 3.265625 1.859375q1.9375 0 3.25 -1.875q1.328125 -1.875 1.328125 -7.5q0 -5.65625 -1.328125 -7.515625q-1.3125 -1.859375 -3.28125 -1.859375q-1.9375 0 -3.09375 1.640625q-1.453125 2.09375 -1.453125 7.734375z" fill-rule="nonzero"/><path fill="#000000" fill-opacity="0.0" d="m120.168655 551.4403l55.118103 0l0 26.2677l-55.118103 0z" fill-rule="evenodd"/><path fill="#000000" d="m140.1574 579.8634q0 -4.0625 0.828125 -6.53125q0.84375 -2.484375 2.484375 -3.828125q1.65625 -1.34375 4.15625 -1.34375q1.84375 0 3.234375 0.75q1.390625 0.734375 2.296875 2.140625q0.90625 1.390625 1.421875 3.40625q0.515625 2.0 0.515625 5.40625q0 4.03125 -0.828125 6.515625q-0.828125 2.46875 -2.484375 3.828125q-1.640625 1.34375 -4.15625 1.34375q-3.3125 0 -5.203125 -2.375q-2.265625 -2.859375 -2.265625 -9.3125zm2.890625 0q0 5.640625 1.3125 7.515625q1.328125 1.859375 3.265625 1.859375q1.9375 0 3.25 -1.875q1.328125 -1.875 1.328125 -7.5q0 -5.65625 -1.328125 -7.515625q-1.3125 -1.859375 -3.28125 -1.859375q-1.9375 0 -3.09375 1.640625q-1.453125 2.09375 -1.453125 7.734375z" fill-rule="nonzero"/><path fill="#000000" fill-opacity="0.0" d="m147.72823 51.90908l0 500.53543" fill-rule="evenodd"/><path stroke="#999999" stroke-width="2.0" stroke-linejoin="round" stroke-linecap="butt" d="m147.72824 58.763252l0 493.68127" fill-rule="evenodd"/><path fill="#999999" stroke="#999999" stroke-width="2.0" stroke-linecap="butt" d="m147.72824 58.763252l2.2491608 2.2491684l-2.2491608 -6.179535l-2.249176 6.179535z" fill-rule="evenodd"/><path fill="#000000" fill-opacity="0.0" d="m741.36206 552.4526l-593.6378 0" fill-rule="evenodd"/><path stroke="#999999" stroke-width="2.0" stroke-linejoin="round" stroke-linecap="butt" d="m734.5079 552.4526l-586.7836 0" fill-rule="evenodd"/><path fill="#999999" stroke="#999999" stroke-width="2.0" stroke-linecap="butt" d="m734.5079 552.4526l-2.2491455 2.2491455l6.1795044 -2.2491455l-6.1795044 -2.2492065z" fill-rule="evenodd"/><path fill="#000000" fill-opacity="0.0" d="m741.36206 89.364685l-593.6378 0" fill-rule="evenodd"/><path stroke="#cccccc" stroke-width="2.0" stroke-linejoin="round" stroke-linecap="butt" stroke-dasharray="8.0,6.0" d="m741.36206 89.364685l-593.6378 0" fill-rule="evenodd"/><path fill="#000000" fill-opacity="0.0" d="m703.9065 52.678345l0 500.53546" fill-rule="evenodd"/><path stroke="#cccccc" stroke-width="2.0" stroke-linejoin="round" stroke-linecap="butt" stroke-dasharray="8.0,6.0" d="m703.9065 52.678345l0 500.53546" fill-rule="evenodd"/><path fill="#434343" d="m694.7945 89.369576l0 0c0 -5.0357895 4.0823364 -9.118103 9.118164 -9.118103l0 0c2.418274 0 4.737488 0.9606552 6.4474487 2.6706314c1.7099609 1.7099762 2.6706543 4.0292053 2.6706543 6.4474716l0 0c0 5.035797 -4.0823364 9.118111 -9.118103 9.118111l0 0c-5.0358276 0 -9.118164 -4.0823135 -9.118164 -9.118111z" fill-rule="evenodd"/><path fill="#434343" d="m138.61626 552.45746l0 0c0 -5.0357666 4.082321 -9.118103 9.118103 -9.118103l0 0c2.418274 0 4.737503 0.9606323 6.4474792 2.6706543c1.7099762 1.7099609 2.670639 4.029175 2.670639 6.4474487l0 0c0 5.0357666 -4.082321 9.118103 -9.118118 9.118103l0 0c-5.035782 0 -9.118103 -4.0823364 -9.118103 -9.118103z" fill-rule="evenodd"/><path fill="#000000" fill-opacity="0.0" d="m69.9895 74.07277l68.220474 0l0 31.779526l-68.220474 0z" fill-rule="evenodd"/><path fill="#000000" d="m96.64748 101.68253l-2.8125 0l0 -17.921875q-1.015625 0.96875 -2.671875 1.9375q-1.640625 0.96875 -2.953125 1.453125l0 -2.71875q2.359375 -1.109375 4.125 -2.6875q1.765625 -1.578125 2.5 -3.0625l1.8125 0l0 23.0zm8.78125 0l0 -3.203125l3.203125 0l0 3.203125l-3.203125 0zm7.3125 -11.296875q0 -4.0625 0.828125 -6.53125q0.84375 -2.484375 2.484375 -3.828125q1.65625 -1.34375 4.15625 -1.34375q1.84375 0 3.234375 0.75q1.390625 0.734375 2.296875 2.140625q0.90625 1.390625 1.421875 3.40625q0.515625 2.0 0.515625 5.40625q0 4.03125 -0.828125 6.515625q-0.828125 2.46875 -2.484375 3.828125q-1.640625 1.34375 -4.15625 1.34375q-3.3125 0 -5.203125 -2.375q-2.265625 -2.859375 -2.265625 -9.3125zm2.890625 0q0 5.640625 1.3125 7.515625q1.328125 1.859375 3.265625 1.859375q1.9375 0 3.25 -1.875q1.328125 -1.875 1.328125 -7.5q0 -5.65625 -1.328125 -7.515625q-1.3125 -1.859375 -3.28125 -1.859375q-1.9375 0 -3.09375 1.640625q-1.453125 2.09375 -1.453125 7.734375z" fill-rule="nonzero"/><path fill="#000000" fill-opacity="0.0" d="m660.8338 551.43964l86.141785 0l0 26.2677l-86.141785 0z" fill-rule="evenodd"/><path fill="#000000" d="m693.5844 591.1596l-2.8125 0l0 -17.921875q-1.015625 0.96875 -2.671875 1.9375q-1.640625 0.96875 -2.953125 1.453125l0 -2.71875q2.359375 -1.109375 4.125 -2.6875q1.765625 -1.578125 2.5 -3.0625l1.8125 0l0 23.0zm8.78125 0l0 -3.203125l3.203125 0l0 3.203125l-3.203125 0zm7.3125 -11.296875q0 -4.0625 0.828125 -6.53125q0.84375 -2.484375 2.484375 -3.828125q1.65625 -1.34375 4.15625 -1.34375q1.84375 0 3.234375 0.75q1.390625 0.734375 2.296875 2.140625q0.90625 1.390625 1.421875 3.40625q0.515625 2.0 0.515625 5.40625q0 4.03125 -0.828125 6.515625q-0.828125 2.46875 -2.484375 3.828125q-1.640625 1.34375 -4.15625 1.34375q-3.3125 0 -5.203125 -2.375q-2.265625 -2.859375 -2.265625 -9.3125zm2.890625 0q0 5.640625 1.3125 7.515625q1.328125 1.859375 3.265625 1.859375q1.9375 0 3.25 -1.875q1.328125 -1.875 1.328125 -7.5q0 -5.65625 -1.328125 -7.515625q-1.3125 -1.859375 -3.28125 -1.859375q-1.9375 0 -3.09375 1.640625q-1.453125 2.09375 -1.453125 7.734375z" fill-rule="nonzero"/><path fill="#000000" fill-opacity="0.0" d="m147.73436 543.33936c0 -245.26471 137.43309 -432.97827 274.86615 -490.52945c137.43307 -57.55118 274.86618 15.05999 274.86618 30.119987" fill-rule="evenodd"/><path stroke="#000000" stroke-width="3.0" stroke-linejoin="round" stroke-linecap="butt" d="m147.73436 543.33936c0 -245.26471 137.43309 -432.97827 274.86615 -490.52945c137.43307 -57.55118 274.86618 15.05999 274.86618 30.119987" fill-rule="evenodd"/><path fill="#000000" fill-opacity="0.0" d="m697.46515 82.922104l-91.1181 -81.00787" fill-rule="evenodd"/><path stroke="#000000" stroke-width="3.0" stroke-linejoin="round" stroke-linecap="butt" d="m697.46515 82.922104l-82.62073 -73.45333" fill-rule="evenodd"/><path fill="#000000" stroke="#000000" stroke-width="3.0" stroke-linecap="butt" d="m607.4681 2.9108694c1.8109131 -2.0369275 4.930176 -2.2201467 6.967102 -0.40923142c2.0369263 1.810915 2.2201538 4.9302077 0.40924072 6.967135c-1.8109131 2.0369282 -4.930176 2.2201471 -6.967102 0.40923214c-2.0369263 -1.810915 -2.2201538 -4.930208 -0.40924072 -6.9671354z" fill-rule="nonzero"/><path fill="#000000" fill-opacity="0.0" d="m147.73436 543.33936l0 -344.18896" fill-rule="evenodd"/><path stroke="#000000" stroke-width="3.0" stroke-linejoin="round" stroke-linecap="butt" d="m147.73436 543.33936l0 -332.819" fill-rule="evenodd"/><path fill="#000000" stroke="#000000" stroke-width="3.0" stroke-linecap="butt" d="m147.73436 200.65036c2.725525 0 4.9349976 2.2094727 4.9349976 4.9349976c0 2.725525 -2.2094727 4.935013 -4.9349976 4.935013c-2.725525 0 -4.9349976 -2.209488 -4.9349976 -4.935013c0 -2.725525 2.2094727 -4.9349976 4.9349976 -4.9349976z" fill-rule="nonzero"/><path fill="#000000" fill-opacity="0.0" d="m147.72441 158.59842l65.16536 0l0 47.59056l-65.16536 0z" fill-rule="evenodd"/><path fill="#000000" d="m159.19316 198.31842l0 -22.90625l8.640625 0q2.28125 0 3.484375 0.21875q1.6875 0.28125 2.828125 1.078125q1.140625 0.78125 1.828125 2.203125q0.703125 1.421875 0.703125 3.125q0 2.921875 -1.859375 4.953125q-1.859375 2.015625 -6.71875 2.015625l-5.875 0l0 9.3125l-3.03125 0zm3.03125 -12.015625l5.921875 0q2.9375 0 4.171875 -1.09375q1.234375 -1.09375 1.234375 -3.078125q0 -1.4375 -0.734375 -2.453125q-0.71875 -1.03125 -1.90625 -1.359375q-0.765625 -0.203125 -2.828125 -0.203125l-5.859375 0l0 8.1875zm27.765625 12.015625l-2.8125 0l0 -17.921875q-1.015625 0.96875 -2.671875 1.9375q-1.640625 0.96875 -2.953125 1.453125l0 -2.71875q2.359375 -1.109375 4.125 -2.6875q1.765625 -1.578125 2.5 -3.0625l1.8125 0l0 23.0z" fill-rule="nonzero"/><path fill="#000000" fill-opacity="0.0" d="m549.5381 -13.166471l65.165344 0l0 47.59055l-65.165344 0z" fill-rule="evenodd"/><path fill="#000000" d="m561.00684 26.553532l0 -22.90625l8.640625 0q2.28125 0 3.484375 0.21875q1.6875 0.28124976 2.828125 1.0781248q1.140625 0.78125 1.828125 2.203125q0.703125 1.421875 0.703125 3.125q0 2.921875 -1.859375 4.953125q-1.859375 2.015626 -6.71875 2.015626l-5.875 0l0 9.3125l-3.03125 0zm3.03125 -12.015626l5.921875 0q2.9375 0 4.171875 -1.09375q1.234375 -1.09375 1.234375 -3.078125q0 -1.4375 -0.734375 -2.453125q-0.71875 -1.03125 -1.90625 -1.359375q-0.765625 -0.203125 -2.828125 -0.203125l-5.859375 0l0 8.1875zm31.953125 9.312501l0 2.703125l-15.140625 0q-0.03125 -1.015625 0.328125 -1.953125q0.578125 -1.546875 1.84375 -3.046875q1.28125 -1.5 3.6875 -3.46875q3.734375 -3.062501 5.046875 -4.843751q1.3125 -1.796875 1.3125 -3.390625q0 -1.671875 -1.203125 -2.8125q-1.1875 -1.15625 -3.109375 -1.15625q-2.03125 0 -3.25 1.21875q-1.21875 1.21875 -1.234375 3.375l-2.890625 -0.296875q0.296875 -3.234375 2.234375 -4.921875q1.9375 -1.7031248 5.203125 -1.7031248q3.296875 0 5.21875 1.8281248q1.921875 1.828125 1.921875 4.53125q0 1.375 -0.5625 2.703125q-0.5625 1.328125 -1.875 2.796875q-1.296875 1.468751 -4.328125 4.031251q-2.53125 2.125 -3.25 2.890625q-0.71875 0.75 -1.1875 1.515625l11.234375 0z" fill-rule="nonzero"/></g></svg>